<svg aria-hidden="true" style="width:0;height:0;position:absolute;overflow:hidden" xmlns="http://www.w3.org/2000/svg"><defs><symbol id="icon-gps" viewBox="0 0 24 24"><path d="M12 18.984q2.906 0 4.945-2.039T18.984 12t-2.039-4.945T12 5.016 7.055 7.055 5.016 12t2.039 4.945T12 18.984zm8.953-7.968h2.063v1.969h-2.063q-.328 2.953-2.672 5.297t-5.297 2.672v2.063h-1.969v-2.063q-2.953-.328-5.297-2.672t-2.672-5.297H.983v-1.969h2.063q.328-2.953 2.672-5.297t5.297-2.672V.984h1.969v2.063q2.953.328 5.297 2.672t2.672 5.297z"/></symbol><symbol id="icon-star" viewBox="0 0 32 32"><path d="m32 12.408-11.056-1.607L16 .783l-4.944 10.018L0 12.408l8 7.798-1.889 11.011L16 26.018l9.889 5.199L24 20.206l8-7.798zM16 23.547l-6.983 3.671 1.334-7.776-5.65-5.507 7.808-1.134 3.492-7.075 3.492 7.075 7.807 1.134-5.65 5.507 1.334 7.776-6.983-3.671z"/></symbol><symbol id="icon-cross" viewBox="0 0 32 32"><path fill="#fff4f4" d="M31.708 25.708 22 16l9.708-9.708a1 1 0 0 0 0-1.414L27.122.292a1 1 0 0 0-1.414-.001L16 9.999 6.292.291a.998.998 0 0 0-1.414.001L.292 4.878a1 1 0 0 0 0 1.414L10 16 .292 25.708a.999.999 0 0 0 0 1.414l4.586 4.586a1 1 0 0 0 1.414 0L16 22l9.708 9.708a1 1 0 0 0 1.414 0l4.586-4.586a.999.999 0 0 0 0-1.414z"/></symbol><symbol id="cloud-icon" viewBox="0 0 32 32"><path fill="#eee1dc" style="fill:var(--color1,#eee1dc)" d="M26.888 20.96c-3.317 0-11.015-2.423-14.428-5.445-1.259-1.114-1.897-2.262-1.897-3.411a4.63 4.63 0 0 1 5.908-4.444 4.62 4.62 0 0 1 4.374-3.114c1.671 0 3.199.909 4.013 2.325a4.63 4.63 0 0 1 4.933 5.494 4.653 4.653 0 0 1 2.21 3.944 4.37 4.37 0 0 1-1.377 3.194c-.81.77-1.923 1.276-3.134 1.424-.179.022-.38.033-.601.033z"/><path fill="#e0d2cd" style="fill:var(--color2,#e0d2cd)" d="M29.79 12.366a4.63 4.63 0 0 0-4.933-5.494 4.647 4.647 0 0 0-3.576-2.304v15.323c2.204.673 4.264 1.07 5.607 1.07.22 0 .421-.011.601-.033 1.211-.148 2.324-.654 3.134-1.424A4.373 4.373 0 0 0 32 16.31a4.654 4.654 0 0 0-2.21-3.944z"/><path fill="#fff4f4" style="fill:var(--color3,#fff4f4)" d="M13.321 27.454a4.7 4.7 0 0 1-4.017-2.272 3.927 3.927 0 0 1-2.042.576 3.933 3.933 0 0 1-3.746-2.77 3.919 3.919 0 0 1 .011-7.796A3.907 3.907 0 0 1 4.6 13.504a3.903 3.903 0 0 1 2.662-1.043c.72 0 1.421.202 2.026.567a4.697 4.697 0 0 1 4.033-2.3 4.697 4.697 0 0 1 4.033 2.3 3.926 3.926 0 0 1 2.026-.567c.99 0 1.936.37 2.662 1.043a3.91 3.91 0 0 1 1.073 1.689 3.918 3.918 0 0 1 .011 7.795 3.932 3.932 0 0 1-3.746 2.77 3.93 3.93 0 0 1-2.042-.576 4.7 4.7 0 0 1-4.017 2.272z"/><path fill="#f6efea" style="fill:var(--color4,#f6efea)" d="M25.317 16.155a3.922 3.922 0 0 0-2.202-.961 3.91 3.91 0 0 0-1.073-1.689 3.903 3.903 0 0 0-2.662-1.043c-.72 0-1.421.202-2.026.567a4.697 4.697 0 0 0-4.033-2.3v16.725a4.7 4.7 0 0 0 4.017-2.272 3.927 3.927 0 0 0 2.042.576 3.933 3.933 0 0 0 3.746-2.77 3.92 3.92 0 0 0 2.192-6.834z"/></symbol><symbol id="icon-keyboard_arrow_down" viewBox="0 0 24 24"><path d="m7.4 8.58 4.6 4.6 4.6-4.6 1.4 1.4-6 6-6-6z"/></symbol><symbol id="icon-keyboard_arrow_up" viewBox="0 0 24 24"><path d="M7.4 15.42 6 14.02l6-6 6 6-1.4 1.4-4.6-4.6z"/></symbol></defs></svg>