<svg aria-hidden="true" style="position: absolute; width: 0; height: 0; overflow: hidden;" version="1.1" xmlns="http://www.w3.org/2000/svg" xmlns:xlink="http://www.w3.org/1999/xlink">
    <defs>
       <!--header-->
       <symbol id="icon-gps" viewBox="0 0 24 24">
        <path d="M12 18.984q2.906 0 4.945-2.039t2.039-4.945-2.039-4.945-4.945-2.039-4.945 2.039-2.039 4.945 2.039 4.945 4.945 2.039zM20.953 11.016h2.063v1.969h-2.063q-0.328 2.953-2.672 5.297t-5.297 2.672v2.063h-1.969v-2.063q-2.953-0.328-5.297-2.672t-2.672-5.297h-2.063v-1.969h2.063q0.328-2.953 2.672-5.297t5.297-2.672v-2.063h1.969v2.063q2.953 0.328 5.297 2.672t2.672 5.297z"></path>
       </symbol>
       <symbol id="icon-star" viewBox="0 0 32 32">
         <path d="M32 12.408l-11.056-1.607-4.944-10.018-4.944 10.018-11.056 1.607 8 7.798-1.889 11.011 9.889-5.199 9.889 5.199-1.889-11.011 8-7.798zM16 23.547l-6.983 3.671 1.334-7.776-5.65-5.507 7.808-1.134 3.492-7.075 3.492 7.075 7.807 1.134-5.65 5.507 1.334 7.776-6.983-3.671z"></path>
       </symbol>
       <symbol id="icon-cancel-circle" viewBox="0 0 32 32">
         <path  d="M16 0c-8.837 0-16 7.163-16 16s7.163 16 16 16 16-7.163 16-16-7.163-16-16-16zM16 29c-7.18 0-13-5.82-13-13s5.82-13 13-13 13 5.82 13 13-5.82 13-13 13z"></path>
         <path  d="M21 8l-5 5-5-5-3 3 5 5-5 5 3 3 5-5 5 5 3-3-5-5 5-5z"></path>
       </symbol>
       <!--Pagina1 - Sectiunea2 ANDREI-->
       <symbol id="cloud-icon" viewBox="0 0 32 32">
            <path fill="#eee1dc" style="fill: var(--color1, #eee1dc)"
                d="M26.888 20.96c-3.317 0-11.015-2.423-14.428-5.445-1.259-1.114-1.897-2.262-1.897-3.411 0-2.55 2.075-4.625 4.625-4.625 0.437 0 0.868 0.061 1.283 0.181 0.626-1.821 2.352-3.114 4.374-3.114 1.671 0 3.199 0.909 4.013 2.325 0.131-0.011 0.262-0.017 0.393-0.017 2.55 0 4.625 2.075 4.625 4.625 0 0.3-0.028 0.596-0.085 0.886 1.349 0.831 2.21 2.324 2.21 3.944 0 1.215-0.489 2.35-1.377 3.194-0.81 0.77-1.923 1.276-3.134 1.424-0.179 0.022-0.38 0.033-0.601 0.033z">
            </path>
            <path fill="#e0d2cd" style="fill: var(--color2, #e0d2cd)"
                d="M29.79 12.366c0.056-0.29 0.085-0.586 0.085-0.886 0-2.55-2.075-4.625-4.625-4.625-0.131 0-0.263 0.006-0.393 0.017-0.743-1.292-2.079-2.161-3.576-2.304v15.323c2.204 0.673 4.264 1.070 5.607 1.070 0.22 0 0.421-0.011 0.601-0.033 1.211-0.148 2.324-0.654 3.134-1.424 0.888-0.845 1.377-1.979 1.377-3.194 0-1.619-0.861-3.113-2.21-3.944z">
            </path>
            <path fill="#fff4f4" style="fill: var(--color3, #fff4f4)"
                d="M13.321 27.454c-1.068 0-2.113-0.369-2.943-1.039-0.429-0.346-0.792-0.766-1.074-1.233-0.608 0.371-1.315 0.576-2.042 0.576-1.747 0-3.251-1.162-3.746-2.77-0.806-0.084-1.575-0.416-2.193-0.961-0.841-0.743-1.323-1.813-1.323-2.936 0-2.029 1.55-3.702 3.527-3.899 0.203-0.641 0.57-1.222 1.073-1.688 0.726-0.673 1.671-1.043 2.662-1.043 0.72 0 1.421 0.202 2.026 0.567 0.281-0.473 0.645-0.898 1.077-1.25 0.832-0.677 1.882-1.050 2.956-1.050s2.124 0.373 2.956 1.050c0.432 0.351 0.796 0.776 1.077 1.25 0.605-0.365 1.305-0.567 2.026-0.567 0.99 0 1.936 0.37 2.662 1.043 0.503 0.466 0.87 1.048 1.073 1.689 0.81 0.082 1.582 0.414 2.203 0.961 0.842 0.743 1.325 1.813 1.325 2.937s-0.482 2.193-1.324 2.936c-0.618 0.546-1.386 0.878-2.193 0.961-0.494 1.608-1.999 2.77-3.746 2.77-0.727 0-1.433-0.205-2.042-0.576-0.282 0.468-0.645 0.887-1.074 1.233-0.83 0.67-1.875 1.039-2.943 1.039z">
            </path>
            <path fill="#f6efea" style="fill: var(--color4, #f6efea)"
                d="M25.317 16.155c-0.62-0.547-1.393-0.88-2.202-0.961-0.203-0.641-0.57-1.223-1.073-1.689-0.726-0.673-1.671-1.043-2.662-1.043-0.72 0-1.421 0.202-2.026 0.567-0.281-0.473-0.645-0.898-1.077-1.25-0.832-0.677-1.882-1.050-2.956-1.050v16.725c1.068 0 2.113-0.369 2.943-1.039 0.429-0.346 0.792-0.766 1.074-1.233 0.608 0.371 1.315 0.576 2.042 0.576 1.747 0 3.251-1.162 3.746-2.77 0.806-0.084 1.575-0.416 2.193-0.961 0.841-0.743 1.324-1.813 1.324-2.936s-0.483-2.194-1.325-2.937z">
            </path>
        </symbol>
        <symbol id="icon-keyboard_arrow_down" viewBox="0 0 24 24">
            <path d="m7.4 8.58 4.6 4.6 4.6-4.6 1.4 1.4-6 6-6-6z"/>
        </symbol>
        <symbol id="icon-keyboard_arrow_up" viewBox="0 0 24 24">
            <path d="M7.4 15.42 6 14.02l6-6 6 6-1.4 1.4-4.6-4.6z"/>
        </symbol>
    </defs>
</svg>
